<?xml version="1.0" standalone="no"?>
<!DOCTYPE svg PUBLIC "-//W3C//DTD SVG 20010904//EN"
 "http://www.w3.org/TR/2001/REC-SVG-20010904/DTD/svg10.dtd">
<svg version="1.0" xmlns="http://www.w3.org/2000/svg"
 width="700.000000pt" height="700.000000pt" viewBox="0 0 700.000000 700.000000"
 preserveAspectRatio="xMidYMid meet">
<metadata>
Created by potrace 1.11, written by Peter Selinger 2001-2013
</metadata>
<g transform="translate(0.000000,700.000000) scale(0.100000,-0.100000)"
fill="#000000" stroke="none">
<path d="M5850 6901 l0 -98 -42 7 c-24 5 -63 11 -88 15 -25 3 -56 8 -70 10
-14 2 -47 7 -75 9 -27 3 -81 10 -120 15 -38 5 -114 13 -167 16 -53 4 -109 8
-125 10 -35 5 -553 6 -608 1 -22 -2 -83 -7 -135 -11 -52 -4 -108 -8 -125 -11
-16 -2 -55 -6 -85 -10 -30 -3 -57 -8 -60 -9 -3 -2 -34 -6 -70 -10 -36 -4 -83
-10 -105 -15 -22 -5 -56 -12 -75 -15 -128 -22 -382 -85 -560 -138 -354 -106
-810 -310 -1113 -498 -43 -27 -80 -49 -82 -49 -17 0 -420 -286 -512 -363 -581
-487 -1073 -1270 -1388 -2212 -34 -102 -92 -303 -103 -357 -19 -94 8 -269 50
-325 6 -7 3 -30 -7 -58 -57 -169 -16 -394 97 -529 40 -47 141 -127 188 -148
125 -57 269 -71 381 -39 35 10 70 20 78 22 12 3 14 -151 14 -1053 l0 -1058
1544 0 1543 0 2 1452 3 1451 25 4 c14 2 36 5 50 7 152 23 322 153 387 296 98
215 148 292 309 480 55 63 108 124 119 136 20 21 224 239 285 304 18 19 94
100 170 180 75 80 152 163 171 185 19 22 41 47 49 55 26 25 163 191 209 252
l43 58 507 2 506 3 1 1068 0 1067 -508 0 -508 0 0 -99z m804 -963 c-1 -469 -2
-856 -3 -860 0 -5 -133 -8 -295 -8 l-293 0 0 860 0 860 296 0 296 0 -1 -852z
m-3442 -1402 c322 -52 459 -146 460 -315 1 -93 -24 -169 -136 -413 -19 -43
-41 -78 -48 -79 -33 -3 -1568 -4 -1568 -1 0 9 127 172 201 257 197 227 386
380 589 473 154 71 354 102 502 78z m234 -1156 c32 -162 94 -267 216 -364 l46
-37 -1 -1327 -2 -1327 -1220 -3 -1220 -2 0 1092 1 1093 51 115 c111 252 217
469 326 665 l66 121 866 0 866 0 5 -26z"/>
</g>
</svg>
